<?xml version="1.0" standalone="no"?>
<!DOCTYPE svg PUBLIC "-//W3C//DTD SVG 20010904//EN"
 "http://www.w3.org/TR/2001/REC-SVG-20010904/DTD/svg10.dtd">
<svg version="1.0" xmlns="http://www.w3.org/2000/svg"
 width="444.000000pt" height="444.000000pt" viewBox="0 0 444.000000 444.000000"
 preserveAspectRatio="xMidYMid meet">

<g transform="translate(0.000000,444.000000) scale(0.100000,-0.100000)"
fill="#000000" stroke="none">
<path d="M0 2220 l0 -2220 603 0 603 0 27 127 c15 71 34 169 43 218 27 156
123 632 140 697 8 35 20 68 25 74 12 14 67 34 314 114 105 34 195 63 201 66 6
3 16 -43 27 -123 10 -71 22 -164 28 -208 11 -82 27 -556 28 -817 1 -101 5
-148 12 -148 8 0 9 110 4 392 -6 372 -22 595 -62 852 -5 38 -5 38 18 23 66
-40 246 -63 345 -44 l42 8 15 -68 c21 -92 25 -118 42 -284 7 -79 25 -236 39
-349 13 -113 30 -278 37 -368 7 -89 17 -162 22 -162 6 0 7 35 3 92 -9 129 -45
489 -57 573 -5 39 -16 133 -24 210 -20 183 -39 299 -58 355 -9 24 -14 46 -12
49 6 5 26 -1 200 -64 237 -85 245 -88 245 -108 0 -10 9 -55 19 -100 11 -45 29
-138 41 -207 19 -106 57 -292 149 -720 l16 -75 683 -3 682 -2 0 2220 0 2220
-2220 0 -2220 0 0 -2220z m1902 1955 c48 -50 105 -118 126 -150 26 -41 88
-103 194 -197 l155 -137 37 38 c20 20 36 41 36 45 0 5 19 39 42 75 45 72 148
278 148 299 0 33 19 2 58 -97 71 -181 84 -283 59 -458 -8 -51 -10 -97 -6 -104
8 -14 128 16 264 67 49 18 91 31 93 29 10 -9 -64 -209 -118 -320 -32 -66 -59
-125 -61 -132 -7 -20 -43 19 -62 66 -9 25 -36 78 -59 118 -50 88 -93 118 -231
164 -182 61 -385 52 -535 -24 -143 -72 -273 -234 -307 -382 -31 -137 -45 -288
-46 -508 l0 -222 -59 -28 c-76 -36 -100 -73 -100 -153 0 -103 49 -173 137
-195 29 -8 43 -17 43 -28 0 -27 59 -213 75 -237 8 -13 11 -25 6 -29 -13 -8
-155 -25 -160 -19 -3 2 5 35 17 72 12 38 22 76 22 84 0 23 -50 37 -170 49 -58
6 -109 15 -114 19 -5 5 8 29 30 57 66 81 94 121 94 136 0 8 -20 24 -45 36 -24
11 -73 38 -108 60 -36 22 -103 56 -151 76 -47 21 -86 40 -86 44 0 8 144 104
195 129 22 11 61 39 87 62 41 36 46 44 37 62 -6 11 -40 34 -76 50 -59 28 -375
218 -397 238 -9 9 111 50 145 50 10 0 69 34 131 77 62 42 143 90 180 106 l67
30 -30 36 c-16 20 -51 87 -78 148 -47 106 -89 178 -169 287 l-35 48 44 -7 c24
-4 69 -13 100 -21 35 -9 109 -14 191 -14 97 0 148 -4 181 -16 26 -9 53 -14 61
-11 8 3 16 29 20 64 3 32 10 81 15 108 10 50 1 162 -20 272 -7 36 -7 70 1 115
7 35 9 91 6 126 l-7 63 23 -12 c13 -7 62 -53 110 -104z m633 -708 c138 -38
242 -124 287 -237 14 -36 24 -68 22 -72 -2 -3 -99 -7 -215 -8 -213 -1 -381
-12 -475 -31 -85 -17 -110 -68 -49 -99 26 -13 86 -15 403 -12 l372 4 0 -31 0
-31 -67 0 c-94 0 -130 -26 -183 -130 -26 -52 -38 -154 -22 -199 6 -18 7 -33 2
-36 -5 -3 4 -27 20 -54 56 -90 83 -178 84 -266 0 -82 -13 -125 -39 -125 -20 0
-59 55 -94 133 -17 37 -35 67 -41 67 -32 0 20 -118 81 -185 48 -52 71 -55 103
-12 18 24 21 42 20 120 0 75 -5 104 -26 154 l-25 61 40 -26 c34 -23 54 -28
124 -31 69 -2 83 -6 79 -18 -3 -8 -6 -25 -6 -38 0 -26 -40 -45 -97 -45 -23 0
-32 -4 -27 -11 4 -7 29 -10 65 -7 l59 4 -1 -55 c0 -78 -23 -211 -38 -220 -7
-5 2 -18 29 -40 22 -17 47 -45 55 -61 14 -27 14 -33 1 -58 -21 -41 -34 -49
-95 -55 -59 -7 -72 -14 -52 -27 17 -10 9 -34 -52 -152 -54 -107 -133 -180
-225 -208 -136 -42 -307 -36 -421 16 -175 80 -176 80 -250 172 -44 53 -75 102
-82 127 -5 22 -23 79 -39 127 -16 51 -25 90 -19 94 15 9 0 24 -24 24 -38 1
-103 36 -127 70 -29 40 -41 102 -29 146 11 39 69 90 119 105 l36 11 2 226 c3
225 22 455 44 522 22 72 88 187 134 240 80 88 196 151 313 170 74 12 263 4
326 -13z m354 -361 c26 -23 27 -42 3 -55 -10 -5 -182 -11 -393 -13 -308 -2
-379 -1 -392 11 -26 21 -21 28 36 47 40 14 102 19 277 25 354 10 444 8 469
-15z m224 -111 c20 -4 40 -11 43 -17 3 -5 -12 -30 -33 -55 -21 -26 -43 -54
-49 -62 -10 -13 -19 -9 -59 27 -27 23 -58 45 -71 48 -30 8 -41 74 -18 108 l15
25 67 -34 c37 -19 84 -37 105 -40z m-186 -76 c61 -23 119 -98 142 -187 14 -50
-5 -138 -46 -209 -39 -69 -114 -95 -217 -73 -73 15 -102 41 -150 134 -34 66
-38 82 -34 126 7 69 54 159 97 184 57 33 156 45 208 25z m102 -533 l43 -44
-53 -26 c-29 -14 -54 -24 -55 -23 -2 2 -6 115 -5 130 2 18 30 3 70 -37z m-821
-1005 c29 -6 83 -11 119 -11 l66 0 -6 -47 c-8 -70 -29 -83 -136 -83 -93 0
-174 18 -229 52 -33 20 -33 20 -27 82 10 91 6 89 87 52 40 -19 97 -39 126 -45z"/>
<path d="M2245 2960 c-73 -9 -97 -19 -153 -60 -61 -44 -93 -116 -93 -208 0
-102 15 -147 69 -204 59 -61 131 -88 235 -88 161 0 261 103 282 291 10 92 -44
185 -147 253 -30 19 -115 27 -193 16z m186 -49 c55 -35 81 -63 112 -123 28
-52 28 -46 -18 -202 -34 -114 -117 -164 -259 -153 -143 11 -229 90 -243 222
-12 111 33 202 121 247 61 31 83 36 167 37 66 1 80 -2 120 -28z"/>
<path d="M2293 2703 c-8 -3 -11 -14 -7 -27 4 -18 1 -25 -15 -29 -36 -9 -23
-27 19 -25 21 1 43 4 48 7 10 7 35 52 30 55 -7 4 -59 26 -61 25 -1 0 -8 -3
-14 -6z"/>
<path d="M2015 2350 c63 -66 198 -105 299 -86 67 13 37 26 -59 26 -102 0 -131
9 -204 64 -49 37 -72 34 -36 -4z"/>
<path d="M2074 1981 c-78 -48 -98 -132 -41 -175 29 -22 122 -29 162 -13 33 14
-2 27 -72 27 -65 0 -103 20 -103 55 0 19 66 92 91 100 21 7 26 25 7 25 -7 0
-27 -9 -44 -19z"/>
<path d="M2495 1950 c-88 -4 -189 -13 -225 -19 -80 -15 -174 -41 -168 -47 3
-2 74 5 159 15 197 25 531 32 607 12 69 -17 78 -7 16 20 -59 26 -152 31 -389
19z"/>
<path d="M2894 2699 c-3 -5 -14 -9 -25 -9 -15 0 -17 -4 -10 -17 5 -10 12 -25
14 -34 5 -14 11 -15 40 -6 47 15 55 49 15 65 -16 6 -30 6 -34 1z"/>
<path d="M2480 1224 c0 -6 20 -51 44 -100 42 -84 112 -247 178 -414 16 -41 37
-93 47 -115 10 -22 29 -68 41 -103 l23 -63 -30 -32 c-16 -18 -45 -52 -63 -77
-18 -25 -47 -59 -63 -77 -34 -37 -39 -26 72 -156 45 -52 82 -87 93 -87 15 0
18 5 13 20 -3 11 -12 100 -19 197 -12 159 -11 180 3 196 14 17 13 24 -6 80
-13 38 -26 110 -33 186 -13 150 -25 176 -17 37 3 -54 2 -95 -2 -90 -4 5 -54
117 -110 249 -93 218 -171 377 -171 349z m325 -1084 l6 -115 -73 79 c-40 43
-77 85 -81 93 -6 9 13 39 60 95 l68 82 6 -59 c4 -33 10 -112 14 -175z"/>
<path d="M1876 1163 c-12 -106 -75 -365 -135 -556 l-58 -188 30 -41 c16 -23
68 -81 114 -129 l85 -88 -70 -78 c-39 -43 -66 -80 -61 -82 13 -4 45 26 112
102 l50 58 -79 82 c-169 175 -165 169 -154 202 72 217 93 285 115 370 34 132
77 387 66 398 -4 4 -11 -18 -15 -50z"/>
<path d="M1676 705 c-10 -39 -24 -106 -31 -150 -35 -204 -57 -309 -90 -420
-38 -129 -39 -135 -27 -135 9 0 46 127 73 255 72 336 102 491 97 507 -3 7 -12
-19 -22 -57z"/>
<path d="M1516 578 c-3 -24 -10 -149 -16 -278 -6 -129 -12 -250 -14 -267 -1
-22 3 -33 11 -33 10 0 13 26 13 108 0 59 7 188 15 287 8 99 15 190 15 203 0
39 -19 23 -24 -20z"/>
</g>
</svg>
